<?xml version="1.0" standalone="no"?>
<!DOCTYPE svg PUBLIC "-//W3C//DTD SVG 20010904//EN"
 "http://www.w3.org/TR/2001/REC-SVG-20010904/DTD/svg10.dtd">
<svg version="1.0" xmlns="http://www.w3.org/2000/svg"
 width="1000.000000pt" height="1000.000000pt" viewBox="0 0 1000.000000 1000.000000"
 preserveAspectRatio="xMidYMid meet">
<metadata>
Created by potrace 1.11, written by Peter Selinger 2001-2013
</metadata>
<g transform="translate(0.000000,1000.000000) scale(0.100000,-0.100000)"
fill="#000000" stroke="none">
<path d="M4985 9310 c-3 -11 -11 -20 -16 -20 -6 0 -7 -4 -4 -10 3 -5 3 -10 -2
-10 -4 0 -19 -23 -32 -50 -14 -28 -27 -50 -30 -50 -4 0 -15 -20 -26 -45 -11
-25 -22 -45 -26 -45 -4 0 -10 -11 -13 -25 -4 -14 -11 -25 -16 -25 -6 0 -10 -5
-10 -11 0 -5 -24 -51 -54 -102 -30 -51 -63 -108 -74 -127 -11 -19 -43 -75 -71
-123 -28 -49 -51 -93 -51 -98 0 -5 -4 -9 -10 -9 -5 0 -10 -4 -10 -8 0 -7 -26
-53 -113 -205 -11 -18 -58 -99 -105 -182 -47 -82 -91 -157 -99 -166 -7 -9 -10
-19 -6 -22 3 -4 1 -7 -5 -7 -6 0 -13 -9 -17 -19 -3 -11 -33 -65 -66 -119 -32
-55 -59 -105 -59 -111 0 -6 -4 -11 -8 -11 -4 0 -20 -24 -35 -52 -15 -29 -39
-71 -52 -93 -14 -22 -28 -47 -32 -55 -4 -8 -33 -59 -65 -113 -32 -54 -58 -100
-58 -103 0 -2 -16 -28 -35 -58 -19 -30 -35 -58 -35 -61 0 -3 -12 -24 -27 -48
-14 -23 -40 -67 -56 -97 -16 -30 -40 -71 -52 -90 -37 -58 -135 -232 -135 -241
0 -5 -4 -9 -10 -9 -5 0 -10 -4 -10 -9 0 -5 -26 -54 -58 -108 -31 -54 -66 -115
-77 -135 -11 -21 -23 -38 -28 -38 -4 0 -6 -4 -3 -9 3 -5 -1 -14 -9 -21 -8 -7
-15 -18 -15 -25 0 -7 -7 -18 -15 -25 -9 -7 -13 -15 -11 -18 3 -3 -5 -19 -17
-36 -21 -29 -30 -44 -74 -126 -11 -19 -52 -91 -93 -160 -115 -198 -118 -204
-132 -230 -7 -14 -15 -27 -18 -30 -9 -9 -51 -84 -63 -112 -6 -16 -15 -28 -19
-28 -4 0 -8 -4 -8 -9 0 -5 -34 -67 -75 -136 -41 -70 -75 -128 -75 -130 0 -2
-26 -47 -58 -102 -32 -54 -61 -105 -65 -113 -4 -8 -16 -30 -27 -47 l-20 -33
2501 0 2501 0 -20 33 c-24 38 -56 93 -75 127 -31 56 -70 123 -166 289 -56 95
-101 176 -101 178 0 3 -8 17 -19 31 -10 15 -29 47 -43 72 -29 51 -38 68 -138
240 -101 175 -110 189 -138 240 -13 25 -30 52 -37 60 -6 8 -15 23 -18 33 -4
10 -27 51 -52 92 -25 41 -45 79 -45 85 0 5 -4 10 -10 10 -5 0 -10 4 -10 10 0
9 -34 69 -79 140 -8 14 -14 28 -13 33 1 4 -3 7 -9 7 -5 0 -8 4 -5 8 3 5 -2 18
-12 28 -9 10 -26 37 -38 59 -30 58 -48 89 -55 95 -4 3 -9 15 -13 28 -4 12 -12
22 -17 22 -5 0 -9 5 -9 11 0 6 -24 52 -54 102 -53 91 -75 129 -124 217 -14 25
-36 61 -49 80 -12 19 -23 39 -23 44 0 5 -6 17 -14 25 -7 9 -26 41 -42 71 -16
30 -31 57 -34 60 -10 10 -90 153 -90 161 0 5 -5 9 -12 9 -6 0 -8 3 -5 7 4 3 1
13 -7 22 -7 9 -27 41 -43 71 -17 30 -48 84 -69 120 -67 112 -85 144 -97 173
-6 15 -15 27 -19 27 -4 0 -8 4 -8 9 0 4 -19 41 -42 80 -61 103 -77 131 -101
176 -12 22 -25 42 -28 45 -4 3 -15 22 -25 42 -11 21 -55 99 -99 175 -44 76
-82 142 -84 148 -2 5 -7 12 -10 15 -7 6 -17 23 -62 108 -17 31 -35 62 -39 67
-7 9 -18 27 -78 135 -29 52 -61 107 -80 135 -6 11 -16 30 -22 43 -12 27 -27
28 -35 2z"/>
<path d="M2490 4983 c0 -7 -20 -47 -45 -89 -25 -41 -45 -80 -45 -85 0 -5 -4
-9 -10 -9 -5 0 -10 -4 -10 -10 0 -5 -20 -44 -45 -86 -25 -41 -45 -77 -45 -80
0 -2 -15 -27 -32 -57 -53 -85 -56 -90 -84 -142 -15 -27 -32 -53 -38 -57 -6 -4
-8 -8 -4 -8 4 0 -7 -24 -26 -52 -18 -29 -46 -78 -63 -108 -17 -30 -81 -143
-143 -250 -62 -107 -124 -215 -138 -240 -13 -25 -28 -49 -32 -55 -4 -5 -61
-102 -125 -215 -65 -113 -139 -241 -165 -285 -46 -78 -68 -117 -137 -240 -39
-70 -56 -98 -63 -105 -5 -5 -35 -59 -69 -125 -9 -16 -19 -31 -23 -33 -5 -2 -8
-10 -8 -18 0 -8 -5 -14 -12 -14 -6 0 -9 -3 -5 -6 3 -3 -14 -36 -37 -73 -24
-37 -47 -77 -50 -89 -4 -12 -13 -28 -19 -35 -7 -7 -20 -28 -31 -47 -17 -32
-146 -256 -167 -290 -5 -8 -32 -55 -60 -105 -28 -49 -62 -108 -76 -130 -13
-22 -28 -52 -34 -67 -6 -16 -15 -28 -20 -28 -5 0 -9 -4 -9 -9 0 -4 -30 -60
-67 -122 -36 -63 -72 -125 -80 -139 -8 -14 -24 -43 -36 -65 -55 -98 -62 -110
-67 -115 -3 -3 -48 -79 -99 -170 -95 -166 -217 -378 -253 -437 l-20 -33 5000
0 5000 0 -14 28 c-57 105 -148 257 -158 264 -6 4 -7 8 -2 8 5 0 4 6 -2 13 -5
6 -22 35 -37 62 -16 28 -31 52 -34 55 -3 3 -19 31 -36 62 -16 32 -34 58 -39
58 -5 0 -7 3 -3 6 3 4 -5 23 -18 43 -14 19 -25 41 -25 48 0 7 -4 13 -9 13 -5
0 -11 8 -14 18 -4 9 -17 35 -30 57 -71 118 -86 145 -79 145 4 0 2 4 -4 8 -7 4
-24 30 -39 57 -16 28 -33 59 -39 70 -6 10 -17 25 -24 33 -6 7 -12 17 -12 22 0
4 -17 37 -38 71 -46 75 -91 155 -106 186 -6 13 -14 23 -18 23 -5 0 -8 4 -8 9
0 9 -143 261 -204 361 -11 19 -20 38 -18 43 1 4 -2 7 -8 7 -5 0 -10 4 -10 9 0
5 -21 45 -47 88 -27 43 -55 92 -63 108 -8 17 -19 37 -26 45 -6 8 -23 35 -36
60 -60 109 -92 165 -97 170 -6 5 -38 63 -70 125 -9 16 -19 32 -22 35 -5 5 -32
51 -92 160 -16 30 -38 66 -47 80 -10 14 -28 45 -40 70 -12 25 -25 47 -29 50
-6 5 -17 23 -56 95 -12 22 -38 69 -58 103 -21 35 -37 68 -37 72 0 5 -3 10 -8
12 -9 4 -172 286 -172 299 0 5 -4 9 -10 9 -5 0 -10 5 -10 10 0 6 -18 40 -40
76 -22 36 -40 68 -40 71 0 3 -8 17 -18 31 -11 15 -32 52 -49 82 -60 110 -87
156 -110 190 -12 19 -23 40 -23 47 0 7 -4 13 -8 13 -5 0 -14 16 -22 35 -8 19
-16 35 -19 35 -3 0 -22 31 -41 68 -19 37 -38 69 -41 72 -3 3 -16 25 -30 50
-13 25 -26 47 -29 50 -3 3 -19 32 -37 65 -17 33 -36 61 -40 62 -9 3 -103 -151
-103 -168 0 -5 -3 -9 -7 -9 -5 0 -17 -19 -28 -43 -11 -23 -22 -44 -26 -47 -3
-3 -20 -30 -36 -61 -17 -32 -38 -68 -46 -80 -32 -50 -68 -115 -74 -131 -3 -10
-9 -18 -14 -18 -5 0 -9 -4 -9 -9 0 -10 -15 -36 -152 -273 -47 -80 -88 -152
-92 -160 -3 -7 -17 -31 -31 -53 -14 -22 -32 -53 -41 -70 -27 -53 -48 -89 -72
-122 -13 -18 -21 -33 -17 -33 3 0 -8 -20 -25 -45 -17 -25 -38 -60 -46 -78 -8
-17 -32 -61 -54 -96 -22 -34 -40 -64 -40 -66 0 -2 -19 -36 -43 -77 -24 -40
-55 -93 -69 -118 -14 -25 -55 -96 -92 -159 -36 -62 -66 -118 -66 -122 0 -5 -4
-9 -8 -9 -4 0 -13 -12 -19 -27 -7 -16 -26 -50 -43 -78 -17 -27 -36 -61 -42
-75 -7 -14 -25 -44 -40 -67 -15 -23 -28 -46 -28 -52 0 -6 -4 -11 -10 -11 -5 0
-9 -3 -8 -7 1 -5 -5 -19 -13 -33 -26 -40 -162 -278 -195 -340 -11 -19 -21 -37
-24 -40 -10 -9 -140 -243 -140 -251 0 -5 -4 -9 -9 -9 -5 0 -11 -8 -14 -17 -4
-10 -18 -38 -33 -63 -15 -25 -35 -58 -44 -75 -9 -16 -31 -53 -47 -81 -28 -46
-54 -92 -107 -186 -22 -39 -199 -344 -285 -491 -28 -49 -51 -93 -51 -98 0 -5
-3 -9 -7 -9 -5 0 -17 -19 -28 -43 -11 -23 -22 -44 -25 -47 -12 -10 -64 -105
-62 -112 1 -5 -2 -8 -7 -8 -5 0 -13 -9 -16 -20 -8 -26 -23 -25 -35 2 -6 13
-24 46 -40 73 -16 28 -40 69 -52 92 -12 24 -25 43 -30 43 -4 0 -8 9 -8 19 0
11 -4 21 -8 23 -5 2 -22 28 -39 58 -79 143 -128 225 -135 228 -4 2 -8 8 -8 13
0 8 -54 104 -139 247 -17 29 -31 54 -31 56 0 2 -18 34 -40 70 -22 36 -40 70
-40 76 0 5 -4 10 -9 10 -5 0 -14 15 -22 32 -7 18 -15 35 -19 38 -10 9 -90 152
-90 161 0 5 -4 9 -10 9 -5 0 -10 9 -10 20 0 11 -3 20 -8 20 -4 0 -16 17 -27
38 -11 20 -39 70 -62 110 -24 40 -43 77 -43 81 0 5 -4 11 -8 13 -7 3 -120 196
-131 223 -2 5 -17 29 -33 53 -16 23 -25 42 -21 42 4 0 3 4 -2 8 -9 6 -61 93
-131 218 -13 22 -68 118 -123 213 -56 95 -101 174 -101 176 0 2 -25 45 -55 96
-30 50 -55 95 -55 100 0 5 -4 9 -8 9 -4 0 -13 12 -19 28 -13 29 -28 56 -111
195 -28 48 -52 89 -52 91 0 2 -29 53 -65 112 -36 60 -65 114 -65 121 0 7 -4
13 -9 13 -5 0 -13 10 -17 23 -4 12 -10 24 -13 27 -6 4 -86 142 -168 290 -14
25 -31 52 -38 60 -7 8 -18 30 -26 48 -8 17 -17 32 -21 32 -5 0 -8 5 -8 11 0 6
-23 49 -51 97 -47 78 -82 139 -113 197 -6 11 -16 27 -22 35 -12 16 -69 118
-88 157 -6 13 -14 23 -18 23 -5 0 -8 6 -8 14 0 17 -39 66 -40 49z"/>
</g>
</svg>
